<?xml version="1.0" encoding="utf-8"?>
<!-- Generator: Adobe Illustrator 15.1.0, SVG Export Plug-In . SVG Version: 6.00 Build 0)  -->
<!DOCTYPE svg PUBLIC "-//W3C//DTD SVG 1.1 Tiny//EN" "http://www.w3.org/Graphics/SVG/1.1/DTD/svg11-tiny.dtd">
<svg version="1.1" baseProfile="tiny" id="Layer_1" xmlns="http://www.w3.org/2000/svg" xmlns:xlink="http://www.w3.org/1999/xlink"
	 x="0px" y="0px" width="100px" height="100px" viewBox="0 0 100 100" xml:space="preserve">
<path fill="#4386F9" d="M99.785,31.871l-6.439-2.274L87.645,9.683l0.021-0.006l-0.104-0.282L87.287,8.43L87.2,8.446l5.21-7.847
	L91.126,0l-6.01,9.055l-28.659,7.521l-6.779-2.393l-1.654,3.69l2.277,0.805l-0.726,0.847c-2.623,7.204-8.969,17.349-17.846,27.798
	C22.594,58.075,12.965,66.576,5.637,70.882L2.112,69.62L0,74.282l7.588,2.715l3.737,15.683l-0.024,0.004l0.087,0.264l0.212,0.891
	l0.092-0.01l-6.074,6.811l1.295,0.623l7.009-7.857l26.985-4.479l9.105,3.257l2.11-4.662l-1.687-0.605
	c7.44-4.089,17.549-12.891,27.112-24.148c9.016-10.611,15.418-20.905,17.963-28.126l2.623,0.926L99.785,31.871z M91.663,29.004
	l-9.171-3.237l5.763-8.684L91.663,29.004z M87.801,15.497l-0.131-0.062l-6.538,9.851l-4.069-1.436l9.156-13.795l0.023-0.006
	L87.801,15.497z M70.582,21.562l5.949-8.965l7.652-2.007l-8.48,12.78L70.582,21.562z M74.497,13.131l-5.274,7.951L58.55,17.314
	L74.497,13.131z M9.292,77.605l7.119,2.547l-5.14,5.766L9.292,77.605z M11.619,87.386l0.133,0.063l6.058-6.794l4.193,1.5
	l-9.155,10.271L12.82,92.43L11.619,87.386z M28.684,84.545l-5.497,6.165l-8.168,1.356l8.388-9.409L28.684,84.545z M25.359,90.35
	l4.726-5.301l8.621,3.085L25.359,90.35z M93.576,34.349c-2.622,7.205-8.969,17.348-17.844,27.799
	c-9.189,10.815-18.881,19.355-26.226,23.639l-0.521,0.605L7.422,71.521c7.332-4.301,16.978-12.815,26.125-23.583
	c9.277-10.922,15.795-21.513,18.182-28.759l42.107,14.865L93.576,34.349z"/>
<path fill="#4386F9" d="M41.626,49.634c-0.11,0.083-0.179,0.188-0.279,0.278c-0.208,0.078-0.408,0.169-0.58,0.3l-10.072,7.672
	c-0.409,0.312-0.626,0.741-0.677,1.22c-0.111,0.17-0.203,0.354-0.266,0.547l-2.784,8.263l-2.902,1.772
	c-1.561,0.949-1.762,2.859-0.447,4.254c1.314,1.399,3.645,1.762,5.204,0.81l13.004-7.946c0.24-0.074,0.462-0.169,0.653-0.312
	l8.733-6.652c0.475-0.146,0.921-0.332,1.299-0.614l11.988-9l12.869,2.04c1.32,0.213,2.829-0.873,3.355-2.42
	c0.116-0.328,0.164-0.646,0.178-0.954c0.143-0.219,0.188-0.436,0.103-0.63l-3.692-8.264c-1.492,1.576-3.817,2.436-6.285,2.47
	l1.383,3.102l-3.28-0.521c0.013-0.91-0.302-1.904-0.872-2.884c-0.505-0.126-1.011-0.278-1.501-0.481
	c-2.146-0.891-3.692-2.367-4.474-4.036c-0.938-0.268-1.87-0.389-2.73-0.342l0.156-2.426l2.094,1.134
	c-0.188-1.225-0.002-2.484,0.686-3.645c0.425-0.719,1.012-1.321,1.684-1.837l-5.609-3.045c-0.213-0.116-0.486-0.126-0.783-0.07
	c-0.371-0.065-0.768-0.106-1.188-0.096c-1.983,0.039-3.651,0.956-3.72,2.048l-0.781,12.41L41.626,49.634z M39.276,60.717
	c-0.465,0.077-0.91,0.232-1.307,0.473l-0.741,0.455l5.678-4.326c0.05,0.046,0.084,0.092,0.134,0.134
	c0.083,0.073,0.175,0.132,0.261,0.202L39.276,60.717z"/>
<path fill="#4386F9" d="M67.579,40.937c4.312,1.787,9.394,0.538,11.353-2.791c1.961-3.329,0.057-7.475-4.252-9.262
	c-4.313-1.786-9.396-0.536-11.355,2.792C61.363,35.005,63.27,39.151,67.579,40.937z"/>
<path fill="#4386F9" d="M25.711,75.87c0.506,0.581,1.248,1.051,2.167,1.278c2.049,0.517,4.131-0.317,4.652-1.86l0.81-2.399
	l-3.677,2.651C28.589,76.316,27.033,76.398,25.711,75.87z"/>
</svg>
