<?xml version="1.0" encoding="utf-8"?>
<!-- Generator: Adobe Illustrator 15.1.0, SVG Export Plug-In . SVG Version: 6.00 Build 0)  -->
<!DOCTYPE svg PUBLIC "-//W3C//DTD SVG 1.1 Tiny//EN" "http://www.w3.org/Graphics/SVG/1.1/DTD/svg11-tiny.dtd">
<svg version="1.1" baseProfile="tiny" id="Layer_1" xmlns="http://www.w3.org/2000/svg" xmlns:xlink="http://www.w3.org/1999/xlink"
	 x="0px" y="0px" width="80px" height="100px" viewBox="-156.25 23.063 80 100" xml:space="preserve">
<path fill="#53A93F" d="M-84.93,68.356c-1.197,0-1.927,0-1.927,0V52.705c-0.097-19.194-13.192-29.643-29.099-29.643
	c-15.909,0-30.172,10.945-29.676,29.643l-0.018,15.635c0,0,0.241,0.018-0.961,0.018c-1.266,0-9.639,1.475-9.639,8.938v35.82
	c0,7.959,9.421,9.947,9.639,9.947c16.761,0,44.438,0,61.204,0c0.221,0,9.156-0.99,9.156-9.947V77.791
	C-76.25,69.334-84.707,68.356-84.93,68.356z M-109.102,109.281h-14.268l2.96-14.566c-2.12-1.411-3.528-3.867-3.528-6.666
	c0-4.381,3.443-7.938,7.688-7.938c4.244,0,7.687,3.557,7.687,7.938c0,2.797-1.406,5.251-3.525,6.664L-109.102,109.281z
	 M-132.173,68.356l0.019-15.442c0-9.949,6.07-17.908,15.906-17.908c9.741,0,15.905,6.964,15.905,17.908l0.008,15.442H-132.173z"/>
</svg>
