<svg xmlns="http://www.w3.org/2000/svg" xmlns:xlink="http://www.w3.org/1999/xlink" version="1.1" id="Layer_1" x="0px" y="0px" width="100px" height="100px" viewBox="0 0 100 100" enable-background="new 0 0 100 100" xml:space="preserve">
<path d="M18.364,68.473c-0.021,0.032-0.032,0.053-0.032,0.074v-0.074H18.364z"/>
<path d="M85.632,46.064c-2.048,0-3.683,0.467-4.978,1.263c-0.064-4.097-0.722-8.769-5.68-8.769c-1.995,0-3.491,0.563-4.617,1.476  c0.106-3.641,0.615-9.447-4.745-9.447c-4.639,0-6.029,3.651-6.571,6.974c-0.626-0.266-1.317-0.488-2.081-0.679  c-0.084-0.329-0.18-0.669-0.265-1.009c-1.262-4.83-1.432-10.796-7.187-10.892c-5.765,0.096-5.934,6.062-7.207,10.892  c-0.086,0.308-0.16,0.616-0.244,0.913c-0.542,0.117-1.04,0.255-1.519,0.425c-0.584-3.227-2.027-6.624-6.517-6.624  c-5.361,0-4.853,5.807-4.746,9.447c-1.125-0.913-2.622-1.476-4.618-1.476c-4.852,0-5.582,4.459-5.668,8.482  c-1.21-0.616-2.675-0.977-4.459-0.977c-9.713,0-8.863,9.214-8.046,17.886c0.636,6.699,4.734,10.148,7.876,11.603  c2.654,1.231,4.968,2.197,6.965,2.951c0.02,0,0.031,0.01,0.041,0.01c6.571,3.153,18.101,5.266,27.951,5.266  c9.437,0,22.006-1.741,28.799-5.01c2.145-0.786,4.703-1.836,7.685-3.216c3.143-1.455,7.24-4.904,7.877-11.603  C94.507,55.278,95.346,46.064,85.632,46.064z M48.629,26.882c0-0.52,0.392-0.934,0.868-0.934c0.49,0,0.882,0.414,0.882,0.934  c0,0.478-0.328,0.871-0.765,0.935l0.913,7.091l-0.817,1.21l-0.213,0.317l-0.21-0.317l-0.819-1.232l0.915-7.07  C48.957,27.753,48.629,27.36,48.629,26.882z M80.674,69.376c-0.009,0.095-0.041,0.169-0.073,0.222  c-0.572,1.359-3.258,2.846-7.313,4.119c-5.902,1.869-14.702,3.302-23.969,3.302c-8.674,0-16.698-1.433-22.419-3.27  c-4.672-1.476-7.804-3.228-8.482-4.661c-0.042-0.095-0.074-0.17-0.085-0.255c-0.021-0.095-0.021-0.18,0-0.286v-0.074h0.032  c0.03-0.128,0.106-0.266,0.243-0.425l6.199-8.45l3.557-4.862l0.011-0.01l4.416-6.02l2.579-3.514l2.981-4.065  c0.416-0.542,1.17-1.146,2.486-1.635c0.181-0.063,0.37-0.127,0.572-0.191c-0.18,0.722-0.328,1.306-0.435,1.688c0,0,0,0,0,0.01  c-0.074,0.287-0.118,0.457-0.118,0.457s-0.126,0.36-0.116,0.774c0.022,0.552,0.277,1.21,1.423,1.21c1.974,0,2.22-1.719,2.22-1.719  l0.7-3.132c1.199-0.127,2.6-0.202,4.235-0.202c1.729,0,3.27,0.085,4.617,0.244l0.679,3.089c0,0,0.255,1.719,2.229,1.719  s1.295-1.984,1.295-1.984s-0.212-0.807-0.521-2.028c0.427,0.148,0.808,0.318,1.146,0.488c0.638,0.351,1.137,0.743,1.497,1.189  l1.752,2.389l4.713,6.421l2.398,3.27l6.073,8.281l1.868,2.548l1.209,1.655l1.753,2.378l0.106,0.127  C80.674,68.738,80.729,69.12,80.674,69.376z"/>
<ellipse cx="49.504" cy="19.426" rx="4.3" ry="4.615"/>
<ellipse cx="34.696" cy="24.742" rx="4.3" ry="4.615"/>
<path d="M29.197,31.53c0,3.065-2.313,5.55-5.171,5.55c-2.854,0-5.168-2.485-5.168-5.55c0-3.066,2.314-5.552,5.168-5.552  C26.885,25.978,29.197,28.464,29.197,31.53z"/>
<ellipse cx="11.774" cy="37.378" rx="6.466" ry="6.941"/>
<ellipse cx="64.938" cy="24.742" rx="4.3" ry="4.615"/>
<ellipse cx="75.606" cy="31.53" rx="5.17" ry="5.55"/>
<ellipse cx="87.86" cy="37.378" rx="6.466" ry="6.941"/>
</svg>